<svg xmlns="http://www.w3.org/2000/svg" width="28.62" height="28.345" viewBox="0 0 28.62 28.345">
  <g id="facebook-logo" transform="translate(0 0)">
    <path id="Path_314" data-name="Path 314" d="M28.62,1.711V26.634a1.719,1.719,0,0,1-1.728,1.711H1.727A1.719,1.719,0,0,1,0,26.634V1.711A1.719,1.719,0,0,1,1.727,0H26.892A1.719,1.719,0,0,1,28.62,1.711Zm0,0" transform="translate(0.001 0)" fill="#1680f6"/>
    <path id="Path_315" data-name="Path 315" d="M3.59,28.344H1.728A1.719,1.719,0,0,1,0,26.633V1.71A1.719,1.719,0,0,1,1.728,0H3.59A1.719,1.719,0,0,0,1.862,1.71V26.633A1.719,1.719,0,0,0,3.59,28.344Zm0,0" transform="translate(0 0)" fill="#439ef4"/>
    <path id="Path_316" data-name="Path 316" d="M294.916,1.712V26.634a1.719,1.719,0,0,1-1.728,1.711H282.063c8.529-9.732,9.5-23.307,9.549-28.345h1.577a1.719,1.719,0,0,1,1.728,1.711Zm0,0" transform="translate(-266.295 -0.001)" fill="#4c60dc"/>
    <path id="Path_317" data-name="Path 317" d="M151.978,98.563v2.4h3.6a.651.651,0,0,1,.654.648v2.72a.651.651,0,0,1-.654.648h-3.6v10.675h-4.055V104.979h-3.6a.651.651,0,0,1-.654-.648v-2.72a.651.651,0,0,1,.654-.648h3.6v-2.8a5.769,5.769,0,0,1,5.8-5.741h1.856a.651.651,0,0,1,.654.648v2.72a.651.651,0,0,1-.654.648h-1.456a2.131,2.131,0,0,0-2.141,2.121Zm0,0" transform="translate(-135.64 -87.309)" fill="#deefff"/>
  </g>
</svg>
