<svg xmlns="http://www.w3.org/2000/svg" width="23" height="20.391" viewBox="0 0 23 20.391">
  <g id="google" transform="translate(0.264)">
    <g id="Google-2" data-name="Google" transform="translate(0)">
      <rect id="Rectangle_22" data-name="Rectangle 22" width="23" height="19" transform="translate(-0.264 0.691)" fill="none"/>
      <path id="Path_54" data-name="Path 54" d="M5.543,40.165a6.027,6.027,0,0,1,.306-1.893L2.413,35.648a10.265,10.265,0,0,0,0,9.03l3.434-2.629a6.031,6.031,0,0,1-.3-1.884" transform="translate(-0.732 -29.969)" fill="#fbbc05"/>
      <path id="Path_55" data-name="Path 55" d="M17.1,4.171A5.908,5.908,0,0,1,20.86,5.515l2.97-2.966A10.2,10.2,0,0,0,7.938,5.679L11.374,8.3A6.017,6.017,0,0,1,17.1,4.171" transform="translate(-6.257 0)" fill="#ea4335"/>
      <path id="Path_56" data-name="Path 56" d="M17.1,80.013a6.017,6.017,0,0,1-5.727-4.132L7.938,78.5A10.179,10.179,0,0,0,17.1,84.184a9.73,9.73,0,0,0,6.652-2.541l-3.262-2.521a6.316,6.316,0,0,1-3.391.892" transform="translate(-6.257 -63.793)" fill="#34a853"/>
      <path id="Path_57" data-name="Path 57" d="M75.2,54.218a8.445,8.445,0,0,0-.232-1.854H65.457V56.3h5.476a4.591,4.591,0,0,1-2.086,3.047l3.262,2.521A10.14,10.14,0,0,0,75.2,54.218" transform="translate(-54.613 -44.022)" fill="#4285f4"/>
    </g>
  </g>
</svg>
