<svg xmlns="http://www.w3.org/2000/svg" width="27.601" height="29.01" viewBox="0 0 27.601 29.01">
  <g id="payment-method_1_" data-name="payment-method (1)" transform="translate(0)">
    <path id="Path_290" data-name="Path 290" d="M107.34,372.017v4.493c2.435.113,1.732.565,5.968,2.567a3.829,3.829,0,0,0,3.119-.056h0l8.322-3.132a1.916,1.916,0,0,0,1.1-2.364,1.755,1.755,0,0,0-2.387-.857l-4.344,1.263" transform="translate(-101.553 -350.938)" fill="#eac092"/>
    <g id="Group_55" data-name="Group 55" transform="translate(5.787 18.127)">
      <path id="Path_291" data-name="Path 291" d="M112.256,324.753l4.838,1.612a1.58,1.58,0,0,0,1.964-1.15h0a1.847,1.847,0,0,0-1.217-2.189l-4.292-1.531a3.615,3.615,0,0,0-3.1-1.573,3.91,3.91,0,0,0-3.109,2.2v2.046" transform="translate(-107.341 -319.921)" fill="#fedbab"/>
    </g>
    <path id="Path_292" data-name="Path 292" d="M153.289,384.99a.527.527,0,0,1-.206-.044.544.544,0,0,1-.093-.052.528.528,0,0,1-.082-.07.537.537,0,0,1-.067-.086.529.529,0,0,1-.05-.1.551.551,0,0,1-.031-.106.571.571,0,0,1,0-.221.571.571,0,0,1,.031-.107.55.55,0,0,1,.05-.1.538.538,0,0,1,.067-.086.524.524,0,0,1,.082-.07.542.542,0,0,1,.093-.052.515.515,0,0,1,.312-.032.491.491,0,0,1,.1.032.538.538,0,0,1,.175.122.541.541,0,0,1,.067.086.589.589,0,0,1,.05.1.614.614,0,0,1,.031.107.59.59,0,0,1-.031.327.566.566,0,0,1-.05.1.539.539,0,0,1-.067.086.542.542,0,0,1-.175.122.488.488,0,0,1-.1.032A.5.5,0,0,1,153.289,384.99Z" transform="translate(-144.515 -362.107)"/>
    <rect id="Rectangle_54" data-name="Rectangle 54" width="2.042" height="6.088" transform="translate(3.745 20.249)" fill="#eaecf0"/>
    <rect id="Rectangle_55" data-name="Rectangle 55" width="3.205" height="7.144" transform="translate(0.539 20.249)" fill="#3688c8"/>
    <path id="Path_293" data-name="Path 293" d="M24.8,314.742l-.007-.017a2.2,2.2,0,0,0-3.037-1.177L18,314.64a2.528,2.528,0,0,0-1.525-1.578l-.014-.005-4.128-1.473A4.2,4.2,0,0,0,8.9,309.922a4.284,4.284,0,0,0-3.367,2.122H.539a.553.553,0,0,0-.539.567v7.144a.553.553,0,0,0,.539.567H3.744a.553.553,0,0,0,.539-.567v-.489h1.5a.553.553,0,0,0,.539-.567v-.163a3.706,3.706,0,0,1,1.969.743,32.059,32.059,0,0,0,3.239,1.738l.024.011a4.636,4.636,0,0,0,1.734.344,4.119,4.119,0,0,0,1.786-.4l8.3-3.124.044-.019A2.449,2.449,0,0,0,24.8,314.742ZM3.205,319.189H1.078v-6.011H3.205Zm2.042-1.056H4.283v-4.955h.964Zm17.744-1.346-8.3,3.123-.024.01-.022.01a3.338,3.338,0,0,1-2.685.048,30.681,30.681,0,0,1-3.13-1.68,4.7,4.7,0,0,0-2.508-.9v-4.564a3.326,3.326,0,0,1,2.57-1.781,3.077,3.077,0,0,1,2.639,1.3.545.545,0,0,0,.286.24l4.284,1.529a1.278,1.278,0,0,1,.88,1.5,1.089,1.089,0,0,1-.5.662,1,1,0,0,1-.792.1l-4.83-1.609a.534.534,0,0,0-.677.369.573.573,0,0,0,.351.711l4.838,1.612.015,0a2.023,2.023,0,0,0,1.618-.2,2.207,2.207,0,0,0,1.011-1.342q.019-.069.033-.138L22.1,314.62c.585-.21,1.352-.286,1.694.542A1.338,1.338,0,0,1,22.992,316.787Z" transform="translate(0 -292.362)"/>
    <path id="Path_294" data-name="Path 294" d="M50.52,15.056l-4.788-5.033-6,6.31L49.987,27.116l5.665-5.954" transform="translate(-37.587 -9.456)" fill="#26cfad"/>
    <path id="Path_295" data-name="Path 295" d="M145.906,113.955h0v0a2.471,2.471,0,0,0-1.618.774,2.761,2.761,0,0,0,0,3.767,2.448,2.448,0,0,0,3.583,0,2.723,2.723,0,0,0,.741-1.816" transform="translate(-135.808 -107.496)" fill="#ffd36c"/>
    <path id="Path_296" data-name="Path 296" d="M201.083,32.689V28.2c-2.435-.113-1.732-.565-5.968-2.567a3.83,3.83,0,0,0-3.119.056h0l-2.511.945,2.591,2.723" transform="translate(-179.268 -23.889)" fill="#eac092"/>
    <g id="Group_56" data-name="Group 56" transform="translate(2.142 0.567)">
      <path id="Path_297" data-name="Path 297" d="M39.729,85.767l2.035-2.139a3.139,3.139,0,0,1,0,4.278Z" transform="translate(-39.729 -79.457)" fill="#00b192"/>
      <path id="Path_298" data-name="Path 298" d="M192.264,259.186a2.783,2.783,0,0,1,4.07,0l-2.035,2.139Z" transform="translate(-184.041 -244.232)" fill="#00b192"/>
      <path id="Path_299" data-name="Path 299" d="M113.333,12.162l2.035-2.139,2.035,2.139A2.783,2.783,0,0,1,113.333,12.162Z" transform="translate(-109.365 -10.023)" fill="#00b192"/>
      <path id="Path_300" data-name="Path 300" d="M288.18,182.048a3.142,3.142,0,0,0,.669,3.174l1.7-1.784" transform="translate(-274.623 -172.3)" fill="#00b192"/>
    </g>
    <g id="Group_57" data-name="Group 57" transform="translate(10.038 5.245)">
      <path id="Path_301" data-name="Path 301" d="M193.053,94.261l-4.838-1.612a1.58,1.58,0,0,0-1.964,1.15h0a1.847,1.847,0,0,0,1.217,2.189l4.294,1.532h0a3.615,3.615,0,0,0,3.1,1.573,3.91,3.91,0,0,0,3.109-2.2V94.852" transform="translate(-186.19 -92.585)" fill="#fedbab"/>
    </g>
    <path id="Path_302" data-name="Path 302" d="M339.789,124.631a.507.507,0,0,1-.105-.011.538.538,0,0,1-.276-.155.542.542,0,0,1-.067-.086.573.573,0,0,1-.05-.1.557.557,0,0,1-.031-.106.569.569,0,0,1,0-.221.574.574,0,0,1,.031-.107.589.589,0,0,1,.05-.1.542.542,0,0,1,.067-.086.54.54,0,0,1,.175-.122.487.487,0,0,1,.1-.032.513.513,0,0,1,.312.032.535.535,0,0,1,.093.052.529.529,0,0,1,.082.07.579.579,0,0,1,.116.184.578.578,0,0,1,.031.107.6.6,0,0,1,0,.221.561.561,0,0,1-.031.106.534.534,0,0,1-.05.1.542.542,0,0,1-.067.086.527.527,0,0,1-.082.07.536.536,0,0,1-.093.052.547.547,0,0,1-.1.032A.517.517,0,0,1,339.789,124.631Z" transform="translate(-320.961 -116.501)"/>
    <rect id="Rectangle_56" data-name="Rectangle 56" width="2.042" height="6.088" transform="translate(21.815 3.542)" fill="#eaecf0"/>
    <rect id="Rectangle_57" data-name="Rectangle 57" width="3.205" height="7.144" transform="translate(23.857 2.486)" fill="#3688c8"/>
    <path id="Path_303" data-name="Path 303" d="M55.152,1.942H51.947a.553.553,0,0,0-.539.567V3H49.9a.553.553,0,0,0-.539.567v.163A3.706,3.706,0,0,1,47.4,2.985a32.068,32.068,0,0,0-3.239-1.738l-.024-.01a4.381,4.381,0,0,0-3.52.058l-2.169.816L36.616.189a.521.521,0,0,0-.762,0l-6,6.31a.582.582,0,0,0,0,.8L40.109,18.083a.561.561,0,0,0,.762,0l5.481-5.761c.142.013.29.02.444.02a4.284,4.284,0,0,0,3.367-2.122h4.99a.553.553,0,0,0,.539-.567V2.509A.553.553,0,0,0,55.152,1.942ZM37.6,7.2A2.48,2.48,0,0,0,39.218,9.2l.014.005,1.078.385a2.12,2.12,0,0,1-.537,1.026,1.929,1.929,0,0,1-2.821,0,2.176,2.176,0,0,1,0-2.965A1.99,1.99,0,0,1,37.6,7.2Zm1.078-2.213a2.179,2.179,0,0,0-.878.975,3.026,3.026,0,0,0-1.613.892,3.352,3.352,0,0,0,0,4.568,2.972,2.972,0,0,0,4.346,0,3.26,3.26,0,0,0,.8-1.462l1.82.649a3.766,3.766,0,0,0,.571,2.872L42.5,14.773a3.291,3.291,0,0,0-4.01,0L33,9.008a3.751,3.751,0,0,0,0-4.216L34.23,3.5a3.292,3.292,0,0,0,4.011,0l1.166,1.226A2.059,2.059,0,0,0,38.681,4.985ZM44.5,12.663a2.57,2.57,0,0,1-.344-1.178,4.133,4.133,0,0,0,.951.541ZM36.235,1.391l1.229,1.291a2.253,2.253,0,0,1-2.457,0ZM32.223,5.608a2.579,2.579,0,0,1,0,2.583L30.994,6.9ZM40.49,16.881,39.261,15.59a2.25,2.25,0,0,1,2.457,0ZM46.8,11.209a3.736,3.736,0,0,1-.562-.042h0a3.062,3.062,0,0,1-2-1.149c-.011-.017-.058-.081-.065-.092a.545.545,0,0,0-.3-.26L39.586,8.137a1.278,1.278,0,0,1-.88-1.5h0a1.089,1.089,0,0,1,.5-.66,1,1,0,0,1,.792-.1l4.83,1.609a.534.534,0,0,0,.677-.369.573.573,0,0,0-.351-.711L41.311,5.124l-.034-.035h0L39.288,3,41,2.354l.019-.007.006,0,.022-.01a3.337,3.337,0,0,1,2.685-.048,30.7,30.7,0,0,1,3.13,1.68,4.7,4.7,0,0,0,2.508.9V9.427A3.326,3.326,0,0,1,46.8,11.209Zm3.648-7.077h.964V9.086h-.964Zm4.169,4.955H52.486V3.076h2.127Z" transform="translate(-28.09 -0.023)"/>
  </g>
</svg>
