<svg xmlns="http://www.w3.org/2000/svg" width="25.242" height="22.896" viewBox="0 0 25.242 22.896">
  <g id="shopping-cart" transform="translate(0 0)">
    <g id="Group_28" data-name="Group 28" transform="translate(0 0)">
      <g id="Group_27" data-name="Group 27">
        <path id="Path_69" data-name="Path 69" d="M25.161,9.527a.365.365,0,0,0-.255-.143L4.491,7.445a1.235,1.235,0,0,0-.337-.808L1.981,4.363a1.124,1.124,0,0,0-1.641,0,1.254,1.254,0,0,0,0,1.717L2.513,8.353a1.124,1.124,0,0,0,1.159.3L6.764,19.362a1.951,1.951,0,0,0,1.863,1.451c.049,0,.1,0,.147-.006l13.977-1.07a1.593,1.593,0,0,0,1.429-1.412l1.061-8.506A.4.4,0,0,0,25.161,9.527ZM3.631,7.806a.408.408,0,0,1-.595,0L.863,5.532a.455.455,0,0,1,0-.622.408.408,0,0,1,.595,0L3.631,7.184A.455.455,0,0,1,3.631,7.806Zm9.1,1.2.167,2.83L9.443,11.7,8.9,8.64Zm-8.418-.8,3.818.363.553,3.106-3.407-.13Zm2.248,7.786L5.505,12.327l3.32.127.618,3.47Zm2.156,4.045a1.208,1.208,0,0,1-1.248-.9l-.687-2.379,2.8-.065.575,3.231Zm.863-7.553,3.363.128.19,3.227-2.944.068ZM10.9,19.869l-.568-3.192,2.852-.066.181,3.07Zm5.817-.445-2.615.2-.179-3.03,2.868-.067Zm.093-3.671-2.933.068-.187-3.182,3.2.122Zm.1-3.765-3.262-.124-.164-2.788,3.492.332Zm3.368,7.164-2.816.216.073-2.857,2.952-.069Zm.268-3.486-2.992.07.075-2.947,3.129.119Zm.272-3.53-3.169-.121.065-2.538,3.285.312Zm2.633,6.089a.836.836,0,0,1-.749.741l-1.677.128.205-2.671,2.453-.057Zm.328-2.634-2.49.058.209-2.712,2.6.1Zm.415-3.326-2.637-.1.177-2.306,2.727.259Z" transform="translate(0 -4.007)"/>
      </g>
    </g>
    <g id="Group_30" data-name="Group 30" transform="translate(5.05 14.286)">
      <g id="Group_29" data-name="Group 29">
        <path id="Path_70" data-name="Path 70" d="M136.971,346.452v-.927h.853a.387.387,0,0,0,0-.774h-16.11a.44.44,0,0,1-.4-.613l1.093-2.55a.387.387,0,0,0-.711-.3l-1.093,2.549a1.214,1.214,0,0,0,1.116,1.692h.426v.927a1.627,1.627,0,1,0,.774,0v-.927H136.2v.927a1.627,1.627,0,1,0,.774,0Zm-13.59,1.58a.853.853,0,1,1-.853-.853A.854.854,0,0,1,123.38,348.032Zm13.2.854a.854.854,0,1,1,.853-.854A.854.854,0,0,1,136.584,348.886Z" transform="translate(-120.5 -341.049)"/>
      </g>
    </g>
  </g>
</svg>
