<svg xmlns="http://www.w3.org/2000/svg" width="72.029" height="24.437" viewBox="0 0 72.029 24.437">
  <g id="surface1" transform="translate(0 0)">
    <path id="Path_304" data-name="Path 304" d="M55.6,9.055c0-.178,0-.308,0-.436a.424.424,0,0,0-.45-.473q-.717,0-1.432,0-.464,0-.466.5,0,3.577,0,7.153c0,.33.157.495.466.5.445,0,.89,0,1.336,0,.414,0,.547-.14.547-.578,0-1.365.018-2.729-.01-4.093a1.224,1.224,0,0,1,.408-1,2,2,0,0,1,1.638-.631,8.6,8.6,0,0,0,.967.036.4.4,0,0,0,.43-.45c.011-.378.011-.758,0-1.137a.407.407,0,0,0-.415-.446,4.121,4.121,0,0,0-2.476.674c-.167.115-.33.236-.543.389M25.715,12.2H25.7q0,1.768,0,3.535c0,.416.131.553.526.554h1.278c.4,0,.532-.136.532-.568,0-1.426,0-2.852,0-4.279,0-.19.054-.247.23-.245.73.009,1.458.005,2.188,0,.309,0,.465-.166.472-.494.006-.248,0-.5,0-.745,0-.4-.134-.544-.515-.545-.716,0-1.433-.005-2.149,0-.182,0-.244-.067-.226-.253.019-.205.018-.413.042-.618.081-.686.34-1.046.886-1.183a3.868,3.868,0,0,1,1.727-.07,3.637,3.637,0,0,0,.653.059c.307.005.464-.166.472-.493.005-.227,0-.455,0-.682a.486.486,0,0,0-.435-.555c-.241-.046-.485-.082-.728-.1a8.393,8.393,0,0,0-2.849.144A2.381,2.381,0,0,0,25.977,7.3a5.218,5.218,0,0,0-.25,1.392c-.035,1.17-.012,2.342-.012,3.513M63.678,15.68a2.616,2.616,0,0,1-.493,1.108,1.068,1.068,0,0,1-1.065.39,7.247,7.247,0,0,0-.882-.1c-.274-.011-.432.168-.438.46-.006.241,0,.482,0,.723,0,.328.128.509.439.544.609.067,1.22.142,1.83.149a2.349,2.349,0,0,0,2.234-1.43,8.761,8.761,0,0,0,.631-1.615c.642-2.411,1.251-4.832,1.871-7.251.085-.334-.048-.513-.378-.514q-.649,0-1.3,0a.617.617,0,0,0-.628.5c-.045.158-.084.318-.125.477q-.587,2.271-1.17,4.542c-.042.166-.113.205-.262.169a1.02,1.02,0,0,1-.588-.409,4.019,4.019,0,0,1-.59-1.293c-.334-1.144-.655-2.292-.982-3.439a.672.672,0,0,0-.684-.551c-.439,0-.877,0-1.316,0-.306,0-.433.187-.344.5.362,1.286.719,2.574,1.093,3.855a6.567,6.567,0,0,0,.945,2.047,2.459,2.459,0,0,0,1.573,1.042c.2.036.395.054.629.086M37.2,15.638c.011.067.017.093.018.12.024.41.145.534.529.534s.749,0,1.123,0c.341,0,.48-.151.481-.517q0-2.324,0-4.65a3.351,3.351,0,0,0-.3-1.458A2.777,2.777,0,0,0,37.119,8.15a6.7,6.7,0,0,0-2.328-.118,4.661,4.661,0,0,0-1.633.4,1.751,1.751,0,0,0-1.074,1.559c-.026.386.139.592.5.593.3,0,.606,0,.91,0a.985.985,0,0,0,.8-.382,1.273,1.273,0,0,1,.328-.282,1.93,1.93,0,0,1,1.028-.239c.9.006,1.266.369,1.36,1.317.02.194-.033.254-.215.252-.716-.008-1.432,0-2.148,0a3.978,3.978,0,0,0-1.59.307,2.336,2.336,0,0,0-1.515,2.245,2.384,2.384,0,0,0,1.394,2.276,3.949,3.949,0,0,0,1.577.371,3.878,3.878,0,0,0,2.374-.6c.1-.063.195-.127.316-.207M43.718,12.7l-.053,0c-.021-.07-.043-.139-.063-.21q-.5-1.812-1.008-3.624a.887.887,0,0,0-.848-.715c-.458-.013-.916-.008-1.374,0-.2,0-.3.111-.3.325a1.279,1.279,0,0,0,.042.325c.055.213.123.421.186.631q.925,3.078,1.854,6.156a.9.9,0,0,0,.914.708c.284,0,.568,0,.852,0a.923.923,0,0,0,.964-.75q.6-2.029,1.2-4.059c.019-.065.045-.129.085-.247.042.131.067.2.088.273q.6,2.021,1.19,4.04a.926.926,0,0,0,.951.743q.416,0,.832,0a.908.908,0,0,0,.953-.735q.859-2.841,1.713-5.684c.123-.413.256-.824.354-1.244.078-.328-.056-.481-.371-.483-.374,0-.748,0-1.122,0A.956.956,0,0,0,49.7,8.99q-.438,1.584-.878,3.17c-.05.182-.106.361-.158.542a1.012,1.012,0,0,1-.145-.34c-.325-1.183-.647-2.367-.974-3.549a.791.791,0,0,0-.84-.667c-.349,0-.7,0-1.045,0a.808.808,0,0,0-.889.709c-.2.719-.394,1.441-.592,2.161L43.718,12.7m26.491,11.74H1.82a.91.91,0,0,0-.144-.043,1.879,1.879,0,0,1-1.6-1.463C.053,22.84.025,22.75,0,22.659V1.778a1.133,1.133,0,0,0,.045-.132A1.889,1.889,0,0,1,1.466.08C1.584.049,1.7.027,1.82,0H70.209a.837.837,0,0,0,.144.042,1.881,1.881,0,0,1,1.6,1.464c.023.091.051.181.076.272V22.659a1.2,1.2,0,0,0-.045.132,1.89,1.89,0,0,1-1.422,1.566c-.117.032-.235.054-.353.08" transform="translate(0 0)" fill="#ffd228"/>
    <path id="Path_305" data-name="Path 305" d="M280.237,57.187q.232-.84.464-1.681c.2-.72.392-1.442.592-2.161a.808.808,0,0,1,.889-.709c.349,0,.7,0,1.045,0a.792.792,0,0,1,.841.667c.327,1.182.649,2.366.974,3.549a1,1,0,0,0,.145.34c.053-.181.109-.36.159-.542q.44-1.585.877-3.17a.957.957,0,0,1,1.054-.844c.374,0,.748,0,1.122,0,.315,0,.449.155.372.483-.1.42-.231.831-.355,1.244q-.853,2.842-1.712,5.684a.908.908,0,0,1-.953.735q-.416,0-.832,0a.926.926,0,0,1-.952-.743q-.6-2.02-1.19-4.04c-.021-.071-.046-.141-.088-.273-.04.117-.065.181-.085.247q-.6,2.03-1.2,4.059a.923.923,0,0,1-.964.75c-.284,0-.568,0-.852,0a.9.9,0,0,1-.914-.708q-.93-3.076-1.853-6.156c-.063-.21-.131-.418-.186-.63a1.286,1.286,0,0,1-.042-.325c0-.214.1-.322.3-.324.458-.005.917-.011,1.375,0a.887.887,0,0,1,.848.715q.507,1.811,1.008,3.624c.02.071.042.14.063.21" transform="translate(-236.519 -44.49)" fill="#006d95"/>
    <path id="Path_306" data-name="Path 306" d="M221.957,56.559v.011c-.354,0-.71-.017-1.063,0a.865.865,0,0,0-.792.535.874.874,0,0,0,.623,1.223,3.059,3.059,0,0,0,2.352-.577.274.274,0,0,0,.075-.193c.009-.268,0-.537.006-.8,0-.155-.056-.2-.195-.2-.335.007-.67,0-1.005,0m1.383,2.712c-.122.08-.218.144-.316.207a3.878,3.878,0,0,1-2.374.6,3.949,3.949,0,0,1-1.577-.371,2.384,2.384,0,0,1-1.394-2.276,2.336,2.336,0,0,1,1.515-2.245,3.978,3.978,0,0,1,1.59-.307c.716,0,1.432-.005,2.148,0,.182,0,.235-.058.216-.252-.1-.948-.461-1.311-1.361-1.317a1.93,1.93,0,0,0-1.028.239,1.274,1.274,0,0,0-.328.282.985.985,0,0,1-.8.382c-.3,0-.607,0-.91,0-.356,0-.521-.207-.495-.593A1.75,1.75,0,0,1,219.3,52.06a4.66,4.66,0,0,1,1.633-.4,6.7,6.7,0,0,1,2.328.118,2.78,2.78,0,0,1,1.93,1.516,3.359,3.359,0,0,1,.3,1.458q0,2.325,0,4.65c0,.367-.139.515-.48.517-.374,0-.749,0-1.123,0s-.5-.125-.529-.534c0-.027-.007-.053-.018-.12" transform="translate(-186.138 -43.633)" fill="#006d95"/>
    <path id="Path_307" data-name="Path 307" d="M414.307,60.177c-.235-.032-.433-.05-.629-.086a2.459,2.459,0,0,1-1.573-1.042A6.567,6.567,0,0,1,411.16,57c-.375-1.282-.732-2.57-1.093-3.855-.089-.316.038-.5.344-.5.439,0,.878,0,1.316,0a.672.672,0,0,1,.684.551c.328,1.146.649,2.295.982,3.439a4.017,4.017,0,0,0,.59,1.293,1.021,1.021,0,0,0,.588.409c.149.037.22,0,.262-.169q.58-2.273,1.17-4.542c.041-.159.081-.319.125-.477a.618.618,0,0,1,.628-.5q.648,0,1.3,0c.331,0,.464.181.378.514-.619,2.418-1.229,4.839-1.87,7.251a8.765,8.765,0,0,1-.631,1.615,2.349,2.349,0,0,1-2.234,1.43c-.61-.006-1.221-.082-1.83-.149-.311-.034-.437-.216-.438-.544,0-.241,0-.483,0-.724.006-.291.163-.471.438-.459a7.239,7.239,0,0,1,.882.1,1.069,1.069,0,0,0,1.065-.39,2.616,2.616,0,0,0,.493-1.108" transform="translate(-350.629 -44.498)" fill="#006d95"/>
    <path id="Path_308" data-name="Path 308" d="M177.407,42.087c0-1.171-.023-2.344.012-3.513a5.216,5.216,0,0,1,.25-1.392,2.381,2.381,0,0,1,1.833-1.629,8.393,8.393,0,0,1,2.849-.144c.244.022.488.057.728.1a.486.486,0,0,1,.435.555c0,.227,0,.455,0,.682-.008.327-.165.5-.472.493a3.635,3.635,0,0,1-.653-.059,3.868,3.868,0,0,0-1.727.07c-.546.137-.805.5-.886,1.183-.024.2-.023.412-.042.618-.018.186.044.255.226.253.716-.009,1.433,0,2.149,0,.381,0,.513.141.515.545,0,.248,0,.5,0,.745-.007.328-.163.493-.472.494-.729,0-1.458.007-2.187,0-.177,0-.232.054-.231.245.006,1.427,0,2.853,0,4.279,0,.432-.127.567-.532.568h-1.278c-.395,0-.526-.137-.526-.554q0-1.767,0-3.535" transform="translate(-151.693 -29.885)" fill="#006d95"/>
    <path id="Path_309" data-name="Path 309" d="M369.895,52.724c.213-.152.376-.274.543-.389a4.12,4.12,0,0,1,2.476-.674.407.407,0,0,1,.415.446c.01.379.01.758,0,1.137a.4.4,0,0,1-.43.45,8.6,8.6,0,0,1-.967-.036,2,2,0,0,0-1.638.631,1.224,1.224,0,0,0-.408,1c.028,1.364.011,2.728.01,4.093,0,.438-.133.578-.547.578-.445,0-.891,0-1.336,0-.309,0-.466-.166-.466-.5q0-3.576,0-7.153,0-.494.466-.5.716,0,1.432,0a.424.424,0,0,1,.45.473c0,.129,0,.258,0,.436" transform="translate(-314.292 -43.669)" fill="#006d95"/>
    <path id="Path_310" data-name="Path 310" d="M235.809,83.541c.335,0,.67,0,1.005,0,.139,0,.2.047.195.2-.008.268,0,.537-.006.8a.274.274,0,0,1-.075.193,3.059,3.059,0,0,1-2.352.577.874.874,0,0,1-.623-1.223.865.865,0,0,1,.792-.535c.353-.022.708,0,1.063,0" transform="translate(-199.99 -70.615)" fill="#ffd228"/>
    <path id="Path_311" data-name="Path 311" d="M45.652,25.753c0,5.33-4.047,9.651-9.039,9.651a8.519,8.519,0,0,1-2.727-.447,8.918,8.918,0,0,1-3.435-2.143,9.939,9.939,0,0,1-2.877-7.061c0-5.331,4.047-9.651,9.039-9.651a8.5,8.5,0,0,1,3.077.574,8.987,8.987,0,0,1,3.293,2.23,9.959,9.959,0,0,1,2.669,6.847" transform="translate(-23.579 -13.611)" fill="#fff"/>
    <path id="Path_312" data-name="Path 312" d="M57.785,73.384l-1.217-.65s-2.076,4.035-5.7,5.755a8.912,8.912,0,0,1-3.435-2.143,6.1,6.1,0,0,0,3.44-1.983,13.515,13.515,0,0,0,2.722-3.6l-.949-.676a.521.521,0,0,1,.107-.9l4.176-1.553a.475.475,0,0,1,.626.412l.62,5.048a.273.273,0,0,1-.387.294" transform="translate(-40.558 -57.143)" fill="#006d95"/>
    <path id="Path_313" data-name="Path 313" d="M108.544,27.4a.271.271,0,0,1-.527-.057l-.278-1.71-2.064.685a.286.286,0,0,1-.33-.4,17.1,17.1,0,0,0,.979-2.994,5.857,5.857,0,0,0-.153-3.108,8.989,8.989,0,0,1,3.293,2.23,13.38,13.38,0,0,1-.919,5.358" transform="translate(-90.059 -16.748)" fill="#006d95"/>
  </g>
</svg>
