<svg xmlns="http://www.w3.org/2000/svg" xmlns:xlink="http://www.w3.org/1999/xlink" width="28.62" height="28.345" viewBox="0 0 28.62 28.345">
  <defs>
    <linearGradient id="linear-gradient" x1="0.332" y1="0.141" x2="0.585" y2="0.682" gradientUnits="objectBoundingBox">
      <stop offset="0" stop-color="#00c3ff"/>
      <stop offset="1" stop-color="#00b0ed"/>
    </linearGradient>
    <linearGradient id="linear-gradient-2" x1="0.738" y1="0.628" x2="-0.899" y2="-0.25" gradientUnits="objectBoundingBox">
      <stop offset="0" stop-color="#00b0ed" stop-opacity="0"/>
      <stop offset="1" stop-color="#00a2ce"/>
    </linearGradient>
    <linearGradient id="linear-gradient-3" x1="0.5" y1="0.27" x2="0.5" y2="0.926" xlink:href="#linear-gradient-2"/>
    <linearGradient id="linear-gradient-4" x1="0.946" y1="0.922" x2="0.342" y2="0.273" xlink:href="#linear-gradient-2"/>
  </defs>
  <g id="twitter" transform="translate(0 0)">
    <path id="Path_329" data-name="Path 329" d="M23.5,27.859a87.28,87.28,0,0,1-18.382,0A5.186,5.186,0,0,1,.49,23.274a84.793,84.793,0,0,1,0-18.2A5.186,5.186,0,0,1,5.119.485,87.278,87.278,0,0,1,23.5.485,5.186,5.186,0,0,1,28.13,5.069a84.792,84.792,0,0,1,0,18.2A5.186,5.186,0,0,1,23.5,27.859Zm0,0" transform="translate(0 0)" fill="url(#linear-gradient)"/>
    <path id="Path_330" data-name="Path 330" d="M53.8,33.333a4.6,4.6,0,0,0-4.108-4.068,77.477,77.477,0,0,0-16.312,0,4.6,4.6,0,0,0-4.108,4.068,75.27,75.27,0,0,0,0,16.154,4.6,4.6,0,0,0,4.108,4.068,77.446,77.446,0,0,0,16.311,0A4.6,4.6,0,0,0,53.8,49.488a75.24,75.24,0,0,0,0-16.154Zm0,0" transform="translate(-27.222 -27.238)" fill="url(#linear-gradient-2)"/>
    <path id="Path_331" data-name="Path 331" d="M7.672,409.805q.029.294.061.588a5.186,5.186,0,0,0,4.629,4.585,87.278,87.278,0,0,0,18.382,0,5.186,5.186,0,0,0,4.629-4.585q.032-.294.061-.588Zm0,0" transform="translate(-7.243 -387.118)" fill="url(#linear-gradient-3)"/>
    <path id="Path_332" data-name="Path 332" d="M120.5,132.858l-5.941-5.883a7.129,7.129,0,0,1-1.694.7,4.889,4.889,0,0,1-.6.122,3.7,3.7,0,0,0-6.33,2.551c0,.073,0,.145.007.217a3.49,3.49,0,0,0,.067.514,10.165,10.165,0,0,1-6.251-2.476h0l-1.243-1.232a3.609,3.609,0,0,0,.686,4.435,4.075,4.075,0,0,0,.311.308l.027.03a3.641,3.641,0,0,1-1.618-.445,3.526,3.526,0,0,0,1.2,2.675l1.047,1.046a2.056,2.056,0,0,1-.917-.087,3.485,3.485,0,0,0,1.056,1.643l1.466,1.46a7.651,7.651,0,0,1-4.447.98l8.9,8.609a87.37,87.37,0,0,0,9.165-.485,5.187,5.187,0,0,0,4.629-4.585,84.932,84.932,0,0,0,.484-10.1Zm0,0" transform="translate(-91.881 -119.682)" fill="url(#linear-gradient-4)"/>
    <path id="Path_333" data-name="Path 333" d="M115.057,128.393a6.723,6.723,0,0,1-1.9.523l-.008-.044a3.506,3.506,0,0,0,1.4-1.9,7.129,7.129,0,0,1-1.694.7,4.936,4.936,0,0,1-.6.122,3.7,3.7,0,0,0-6.33,2.551c0,.073,0,.145.007.216a3.491,3.491,0,0,0,.067.514,10.355,10.355,0,0,1-7.5-3.707,3.59,3.59,0,0,0,1.119,4.777,3.877,3.877,0,0,1-1.713-.45,3.657,3.657,0,0,0,3.006,3.6,3.523,3.523,0,0,1-1.678.035,3.546,3.546,0,0,0,3.355,2.527,7.394,7.394,0,0,1-5.28,1.557,10.445,10.445,0,0,0,15.991-8.728q0-.107,0-.213c0-.042,0-.084,0-.127s0-.059,0-.089A6.48,6.48,0,0,0,115.057,128.393Zm0,0" transform="translate(-91.877 -119.681)" fill="#fff"/>
  </g>
</svg>
