<svg xmlns="http://www.w3.org/2000/svg" width="62.335" height="19.864" viewBox="0 0 62.335 19.864">
  <g id="visa" transform="translate(0)">
    <path id="Path_275" data-name="Path 275" d="M184.8,199.121l3.166-18.721h4.947l-3.067,18.721Z" transform="translate(-161.943 -179.776)" fill="#3c58bf"/>
    <path id="Path_276" data-name="Path 276" d="M184.8,199.121l4.057-18.721h4.057l-3.067,18.721Z" transform="translate(-161.943 -179.776)" fill="#293688"/>
    <path id="Path_277" data-name="Path 277" d="M263.139,176.432a12.01,12.01,0,0,0-4.551-.832c-4.947,0-8.509,2.6-8.509,6.344,0,2.808,2.474,4.264,4.453,5.2s2.573,1.56,2.573,2.392c0,1.248-1.583,1.872-2.968,1.872a10.312,10.312,0,0,1-4.749-1.04l-.693-.312L248,194.321a15.353,15.353,0,0,0,5.64,1.04c5.244,0,8.707-2.6,8.707-6.552,0-2.184-1.286-3.848-4.255-5.2-1.781-.936-2.869-1.456-2.869-2.392,0-.832.891-1.664,2.869-1.664a8.693,8.693,0,0,1,3.76.728l.495.208.792-4.056Z" transform="translate(-217.327 -175.6)" fill="#3c58bf"/>
    <path id="Path_278" data-name="Path 278" d="M263.139,176.432a12.01,12.01,0,0,0-4.551-.832c-4.947,0-7.619,2.6-7.619,6.344,0,2.808,1.583,4.264,3.562,5.2s2.573,1.56,2.573,2.392c0,1.248-1.583,1.872-2.968,1.872a10.312,10.312,0,0,1-4.749-1.04l-.693-.312L248,194.321a15.353,15.353,0,0,0,5.64,1.04c5.244,0,8.707-2.6,8.707-6.552,0-2.184-1.286-3.848-4.255-5.2-1.781-.936-2.869-1.456-2.869-2.392,0-.832.891-1.664,2.869-1.664a8.693,8.693,0,0,1,3.76.728l.495.208.792-4.056Z" transform="translate(-217.327 -175.6)" fill="#293688"/>
    <path id="Path_279" data-name="Path 279" d="M368.393,180.4c-1.187,0-2.078.1-2.573,1.352L358.4,199.121h5.343l.989-3.12h6.333l.594,3.12h4.749L372.252,180.4Zm-2.276,12.48c.3-.936,1.979-5.512,1.979-5.512s.4-1.144.693-1.872l.3,1.768s.989,4.68,1.187,5.72h-4.156Z" transform="translate(-314.072 -179.776)" fill="#3c58bf"/>
    <path id="Path_280" data-name="Path 280" d="M369.581,180.4c-1.187,0-2.078.1-2.573,1.352L358.4,199.121h5.343l.99-3.12h6.332l.594,3.12h4.749L372.252,180.4Zm-3.463,12.48c.4-1.04,1.979-5.512,1.979-5.512s.4-1.144.693-1.872l.3,1.768s.989,4.68,1.187,5.72h-4.156Z" transform="translate(-314.072 -179.776)" fill="#293688"/>
    <path id="Path_281" data-name="Path 281" d="M58.621,194.2l-.495-2.7A14.866,14.866,0,0,0,51.2,183.28l4.453,16.641H61L69.01,181.2H63.667Z" transform="translate(-44.867 -180.472)" fill="#3c58bf"/>
    <path id="Path_282" data-name="Path 282" d="M58.621,194.2l-.495-2.7A14.866,14.866,0,0,0,51.2,183.28l4.453,16.641H61L69.01,181.2H64.657Z" transform="translate(-44.867 -180.472)" fill="#293688"/>
    <path id="Path_283" data-name="Path 283" d="M0,180.4l.891.208c6.332,1.56,10.686,5.512,12.368,10.192l-1.781-8.84A2,2,0,0,0,9.2,180.4Z" transform="translate(0 -179.776)" fill="#ffbc00"/>
    <path id="Path_284" data-name="Path 284" d="M0,180.4H0c6.332,1.56,11.577,5.616,13.259,10.3l-1.682-7.384A2.442,2.442,0,0,0,9.2,181.336Z" transform="translate(0 -179.776)" fill="#f7981d"/>
    <path id="Path_285" data-name="Path 285" d="M0,180.4H0c6.332,1.56,11.577,5.616,13.259,10.3l-1.187-4.056c-.3-1.248-.693-2.5-2.078-3.016Z" transform="translate(0 -179.776)" fill="#ed7c00"/>
    <g id="Group_54" data-name="Group 54" transform="translate(6.432 2.704)">
      <path id="Path_286" data-name="Path 286" d="M64.269,206.8l-3.364-3.536-1.583,3.952-.4-2.6A14.865,14.865,0,0,0,52,196.4l4.453,16.641H61.8Z" transform="translate(-52 -196.4)" fill="#051244"/>
      <path id="Path_287" data-name="Path 287" d="M189.846,293.776l-4.255-4.576-.792,4.576Z" transform="translate(-168.375 -277.136)" fill="#051244"/>
      <path id="Path_288" data-name="Path 288" d="M256.608,274.8h0c.4.416.594.728.495,1.144,0,1.248-1.583,1.872-2.968,1.872a10.312,10.312,0,0,1-4.749-1.04l-.693-.312L248,280.728a15.351,15.351,0,0,0,5.64,1.04c3.166,0,5.739-.936,7.223-2.6Z" transform="translate(-223.758 -264.608)" fill="#051244"/>
      <path id="Path_289" data-name="Path 289" d="M364,233.224h4.65l.989-3.12h6.332l.594,3.12h4.749l-1.682-7.592L373.7,219.6l.3,1.664s.989,4.68,1.187,5.72h-4.156c.4-1.04,1.979-5.512,1.979-5.512s.4-1.144.693-1.872" transform="translate(-325.411 -216.584)" fill="#051244"/>
    </g>
  </g>
</svg>
