<svg xmlns="http://www.w3.org/2000/svg" xmlns:xlink="http://www.w3.org/1999/xlink" width="222.703" height="344.753" viewBox="0 0 222.703 344.753">
  <defs>
    <clipPath id="clip-path">
      <rect width="222.703" height="344.753" fill="none"/>
    </clipPath>
    <linearGradient id="linear-gradient" x1="4.313" y1="1" x2="2.451" y2="2.279" gradientUnits="objectBoundingBox">
      <stop offset="0" stop-color="#3e517e"/>
      <stop offset="0.695" stop-color="#835168"/>
      <stop offset="1" stop-color="#cc5151"/>
    </linearGradient>
  </defs>
  <g id="background_circles" data-name="background circles" opacity="0.05" clip-path="url(#clip-path)">
    <g transform="translate(-825 -199)">
      <circle id="Ellipse_1" data-name="Ellipse 1" cx="19" cy="19" r="19" transform="translate(825 199)" fill="url(#linear-gradient)"/>
      <circle id="Ellipse_1-2" data-name="Ellipse 1" cx="19" cy="19" r="19" transform="translate(888 199)" fill="url(#linear-gradient)"/>
      <circle id="Ellipse_1-3" data-name="Ellipse 1" cx="19" cy="19" r="19" transform="translate(951 199)" fill="url(#linear-gradient)"/>
      <circle id="Ellipse_1-4" data-name="Ellipse 1" cx="19" cy="19" r="19" transform="translate(1013 199)" fill="url(#linear-gradient)"/>
      <circle id="Ellipse_1-5" data-name="Ellipse 1" cx="19" cy="19" r="19" transform="translate(1076 199)" fill="url(#linear-gradient)"/>
      <circle id="Ellipse_1-6" data-name="Ellipse 1" cx="19" cy="19" r="19" transform="translate(825 260)" fill="url(#linear-gradient)"/>
      <circle id="Ellipse_1-7" data-name="Ellipse 1" cx="19" cy="19" r="19" transform="translate(888 260)" fill="url(#linear-gradient)"/>
      <circle id="Ellipse_1-8" data-name="Ellipse 1" cx="19" cy="19" r="19" transform="translate(951 260)" fill="url(#linear-gradient)"/>
      <circle id="Ellipse_1-9" data-name="Ellipse 1" cx="19" cy="19" r="19" transform="translate(1013 260)" fill="url(#linear-gradient)"/>
      <circle id="Ellipse_1-10" data-name="Ellipse 1" cx="19" cy="19" r="19" transform="translate(1076 260)" fill="url(#linear-gradient)"/>
      <circle id="Ellipse_1-11" data-name="Ellipse 1" cx="19" cy="19" r="19" transform="translate(825 321)" fill="url(#linear-gradient)"/>
      <circle id="Ellipse_1-12" data-name="Ellipse 1" cx="19" cy="19" r="19" transform="translate(888 321)" fill="url(#linear-gradient)"/>
      <circle id="Ellipse_1-13" data-name="Ellipse 1" cx="19" cy="19" r="19" transform="translate(951 321)" fill="url(#linear-gradient)"/>
      <circle id="Ellipse_1-14" data-name="Ellipse 1" cx="19" cy="19" r="19" transform="translate(1013 321)" fill="url(#linear-gradient)"/>
      <circle id="Ellipse_1-15" data-name="Ellipse 1" cx="19" cy="19" r="19" transform="translate(1076 321)" fill="url(#linear-gradient)"/>
      <circle id="Ellipse_1-16" data-name="Ellipse 1" cx="19" cy="19" r="19" transform="translate(825 383)" fill="url(#linear-gradient)"/>
      <circle id="Ellipse_1-17" data-name="Ellipse 1" cx="19" cy="19" r="19" transform="translate(888 383)" fill="url(#linear-gradient)"/>
      <circle id="Ellipse_1-18" data-name="Ellipse 1" cx="19" cy="19" r="19" transform="translate(951 383)" fill="url(#linear-gradient)"/>
      <circle id="Ellipse_1-19" data-name="Ellipse 1" cx="19" cy="19" r="19" transform="translate(1013 383)" fill="url(#linear-gradient)"/>
      <circle id="Ellipse_1-20" data-name="Ellipse 1" cx="19" cy="19" r="19" transform="translate(1076 383)" fill="url(#linear-gradient)"/>
      <circle id="Ellipse_1-21" data-name="Ellipse 1" cx="19" cy="19" r="19" transform="translate(825 444)" fill="url(#linear-gradient)"/>
      <circle id="Ellipse_1-22" data-name="Ellipse 1" cx="19" cy="19" r="19" transform="translate(888 444)" fill="url(#linear-gradient)"/>
      <circle id="Ellipse_1-23" data-name="Ellipse 1" cx="19" cy="19" r="19" transform="translate(951 444)" fill="url(#linear-gradient)"/>
      <circle id="Ellipse_1-24" data-name="Ellipse 1" cx="19" cy="19" r="19" transform="translate(1013 444)" fill="url(#linear-gradient)"/>
      <circle id="Ellipse_1-25" data-name="Ellipse 1" cx="19" cy="19" r="19" transform="translate(1076 444)" fill="url(#linear-gradient)"/>
    </g>
    <g transform="translate(-825 104)">
      <circle id="Ellipse_1-26" data-name="Ellipse 1" cx="19" cy="19" r="19" transform="translate(825 199)" fill="url(#linear-gradient)"/>
      <circle id="Ellipse_1-27" data-name="Ellipse 1" cx="19" cy="19" r="19" transform="translate(888 199)" fill="url(#linear-gradient)"/>
      <circle id="Ellipse_1-28" data-name="Ellipse 1" cx="19" cy="19" r="19" transform="translate(951 199)" fill="url(#linear-gradient)"/>
      <circle id="Ellipse_1-29" data-name="Ellipse 1" cx="19" cy="19" r="19" transform="translate(1013 199)" fill="url(#linear-gradient)"/>
      <circle id="Ellipse_1-30" data-name="Ellipse 1" cx="19" cy="19" r="19" transform="translate(1076 199)" fill="url(#linear-gradient)"/>
      <circle id="Ellipse_1-31" data-name="Ellipse 1" cx="19" cy="19" r="19" transform="translate(825 260)" fill="url(#linear-gradient)"/>
      <circle id="Ellipse_1-32" data-name="Ellipse 1" cx="19" cy="19" r="19" transform="translate(888 260)" fill="url(#linear-gradient)"/>
      <circle id="Ellipse_1-33" data-name="Ellipse 1" cx="19" cy="19" r="19" transform="translate(951 260)" fill="url(#linear-gradient)"/>
      <circle id="Ellipse_1-34" data-name="Ellipse 1" cx="19" cy="19" r="19" transform="translate(1013 260)" fill="url(#linear-gradient)"/>
      <circle id="Ellipse_1-35" data-name="Ellipse 1" cx="19" cy="19" r="19" transform="translate(1076 260)" fill="url(#linear-gradient)"/>
      <circle id="Ellipse_1-36" data-name="Ellipse 1" cx="19" cy="19" r="19" transform="translate(825 321)" fill="url(#linear-gradient)"/>
      <circle id="Ellipse_1-37" data-name="Ellipse 1" cx="19" cy="19" r="19" transform="translate(888 321)" fill="url(#linear-gradient)"/>
      <circle id="Ellipse_1-38" data-name="Ellipse 1" cx="19" cy="19" r="19" transform="translate(951 321)" fill="url(#linear-gradient)"/>
      <circle id="Ellipse_1-39" data-name="Ellipse 1" cx="19" cy="19" r="19" transform="translate(1013 321)" fill="url(#linear-gradient)"/>
      <circle id="Ellipse_1-40" data-name="Ellipse 1" cx="19" cy="19" r="19" transform="translate(1076 321)" fill="url(#linear-gradient)"/>
      <circle id="Ellipse_1-41" data-name="Ellipse 1" cx="19" cy="19" r="19" transform="translate(825 383)" fill="url(#linear-gradient)"/>
      <circle id="Ellipse_1-42" data-name="Ellipse 1" cx="19" cy="19" r="19" transform="translate(888 383)" fill="url(#linear-gradient)"/>
      <circle id="Ellipse_1-43" data-name="Ellipse 1" cx="19" cy="19" r="19" transform="translate(951 383)" fill="url(#linear-gradient)"/>
      <circle id="Ellipse_1-44" data-name="Ellipse 1" cx="19" cy="19" r="19" transform="translate(1013 383)" fill="url(#linear-gradient)"/>
      <circle id="Ellipse_1-45" data-name="Ellipse 1" cx="19" cy="19" r="19" transform="translate(1076 383)" fill="url(#linear-gradient)"/>
      <circle id="Ellipse_1-46" data-name="Ellipse 1" cx="19" cy="19" r="19" transform="translate(825 444)" fill="url(#linear-gradient)"/>
      <circle id="Ellipse_1-47" data-name="Ellipse 1" cx="19" cy="19" r="19" transform="translate(888 444)" fill="url(#linear-gradient)"/>
      <circle id="Ellipse_1-48" data-name="Ellipse 1" cx="19" cy="19" r="19" transform="translate(951 444)" fill="url(#linear-gradient)"/>
      <circle id="Ellipse_1-49" data-name="Ellipse 1" cx="19" cy="19" r="19" transform="translate(1013 444)" fill="url(#linear-gradient)"/>
      <circle id="Ellipse_1-50" data-name="Ellipse 1" cx="19" cy="19" r="19" transform="translate(1076 444)" fill="url(#linear-gradient)"/>
    </g>
  </g>
</svg>
